<?xml version="1.0" encoding="UTF-8" standalone="no"?>
<!DOCTYPE svg PUBLIC "-//W3C//DTD SVG 1.0//EN" "http://www.w3.org/TR/2001/REC-SVG-20010904/DTD/svg10.dtd">
<!-- Generated by Microsoft Visio 11.0, SVG Export, v1.0 application_workflow.svg Page-1 -->
<svg xmlns="http://www.w3.org/2000/svg" xmlns:xlink="http://www.w3.org/1999/xlink" xmlns:ev="http://www.w3.org/2001/xml-events"
		xmlns:v="http://schemas.microsoft.com/visio/2003/SVGExtensions/" width="21.5in" height="16.5in" viewBox="0 0 1548 1188"
		xml:space="preserve" color-interpolation-filters="sRGB" class="st15">
	<v:documentProperties v:langID="1033" v:viewMarkup="false">
		<v:userDefs>
			<v:ud v:nameU="msvSubprocessMaster" v:prompt="" v:val="VT4(Rectangle)"/>
			<v:ud v:nameU="msvNoAutoConnect" v:val="VT0(1):26"/>
			<v:ud v:nameU="msvConvertTheme"/>
		</v:userDefs>
	</v:documentProperties>

	<style type="text/css">
	<![CDATA[
		.st1 {visibility:visible}
		.st2 {fill:#000000;fill-opacity:0.4;stroke:#000000;stroke-opacity:0.4;stroke-width:0.25}
		.st3 {fill:#ffffff;stroke:#e8ebef;stroke-width:0.25}
		.st4 {fill:#0c0c0c;font-family:Calibri;font-size:1.5em;font-weight:bold}
		.st5 {font-size:0.777771em;font-weight:normal}
		.st6 {fill:none;stroke:none;stroke-width:0.25}
		.st7 {fill:#5b9bd5;font-family:Calibri;font-size:1.00001em}
		.st8 {marker-end:url(#mrkr4-75);stroke:#5b9bd5;stroke-linecap:round;stroke-linejoin:round;stroke-width:1}
		.st9 {fill:#5b9bd5;fill-opacity:1;stroke:#5b9bd5;stroke-opacity:1;stroke-width:0.28409090909091}
		.st10 {stroke:#5b9bd5;stroke-linecap:round;stroke-linejoin:round;stroke-width:1}
		.st11 {marker-end:url(#mrkr4-140);stroke:#5b9bd5;stroke-linecap:round;stroke-linejoin:round;stroke-width:1}
		.st12 {fill:#e8eef7;stroke:#000000;stroke-linecap:round;stroke-linejoin:round;stroke-width:0.24}
		.st13 {fill:#000000;font-family:Calibri;font-size:0.833336em}
		.st14 {font-size:1em}
		.st15 {fill:none;fill-rule:evenodd;font-size:12;overflow:visible;stroke-linecap:square;stroke-miterlimit:3}
	]]>
	</style>

	<defs id="Markers">
		<g id="lend4">
			<path d="M 2 1 L 0 0 L 2 -1 L 2 1 " style="stroke:none"/>
		</g>
		<marker id="mrkr4-75" class="st9" v:arrowType="4" v:arrowSize="2" v:setback="7.04" refX="-7.04" orient="auto"
				markerUnits="strokeWidth">
			<use xlink:href="#lend4" transform="scale(-3.52,-3.52) "/>
		</marker>
		<marker id="mrkr4-140" class="st9" v:arrowType="4" v:arrowSize="2" v:setback="0" refX="-0" orient="auto"
				markerUnits="strokeWidth">
			<use xlink:href="#lend4" transform="scale(-3.52,-3.52) "/>
		</marker>
	</defs>
	<g v:mID="0" v:index="1" v:groupContext="foregroundPage">
		<title>Page-1</title>
		<v:pageProperties v:drawingScale="1" v:pageScale="1" v:drawingUnits="0" v:shadowOffsetX="9" v:shadowOffsetY="-9"/>
		<v:layer v:name="Connector" v:index="0"/>
		<g id="shape10-1" v:mID="10" v:groupContext="shape" transform="translate(99,-567)">
			<title>Rectangle.10</title>
			<desc>Access Patterns Q1: Find a user with a specified email Q2: Fi...</desc>
			<v:userDefs>
				<v:ud v:nameU="visVersion" v:val="VT0(15):26"/>
			</v:userDefs>
			<v:textBlock v:margins="rect(4,4,4,4)"/>
			<v:textRect cx="288" cy="1075.5" width="576" height="225"/>
			<g id="shadow10-2" v:groupContext="shadow" v:shadowOffsetX="2.12132" v:shadowOffsetY="-2.12132" v:shadowType="1"
					transform="matrix(1,0,0,1,2.12132,2.12132)" class="st1">
				<rect x="0" y="963" width="576" height="225" class="st2"/>
			</g>
			<rect x="0" y="963" width="576" height="225" class="st3"/>
			<text x="4" y="988.5" class="st4" v:langID="1033"><v:paragraph/><v:tabList/>Access Patterns<v:newlineChar/><v:newlineChar/><tspan
						x="4" dy="2.486em" class="st5">Q</tspan><tspan class="st5">1</tspan><tspan class="st5">: </tspan><tspan
						class="st5">Find a user with a specified email<v:newlineChar/></tspan><tspan x="4" dy="1.2em" class="st5">Q</tspan><tspan
						class="st5">2</tspan><tspan class="st5">: </tspan><tspan class="st5">Find most recently uploaded videos<v:newlineChar/></tspan><tspan
						x="4" dy="1.2em" class="st5">Q</tspan><tspan class="st5">3</tspan><tspan class="st5">: </tspan><tspan
						class="st5">Find a user with a specified user id<v:newlineChar/></tspan><tspan x="4" dy="1.2em" class="st5">Q</tspan><tspan
						class="st5">4</tspan><tspan class="st5">: </tspan><tspan class="st5">Find video interactions for a user with a known id </tspan><tspan
						class="st5">(</tspan><tspan class="st5">show most recent interactions first</tspan><tspan class="st5">)<v:newlineChar/></tspan><tspan
						x="4" dy="1.2em" class="st5">Q</tspan><tspan class="st5">5</tspan><tspan class="st5">: </tspan><tspan
						class="st5">Find videos uploaded by a user with a known id </tspan><tspan class="st5">(</tspan><tspan
						class="st5">show most recently uploaded videos first</tspan><tspan class="st5">)<v:newlineChar/></tspan><tspan
						x="4" dy="1.2em" class="st5">Q</tspan><tspan class="st5">6</tspan><tspan class="st5">: </tspan><tspan
						class="st5">Find comments posted by a user with a known id </tspan><tspan class="st5">(</tspan><tspan
						class="st5">show most recently posted comments first</tspan><tspan class="st5">)<v:newlineChar/></tspan><tspan
						x="4" dy="1.2em" class="st5">Q</tspan><tspan class="st5">7</tspan><tspan class="st5">: </tspan><tspan
						class="st5">Find comments posted for a video with a known id </tspan><tspan class="st5">(</tspan><tspan
						class="st5">show most recent comments first</tspan><tspan class="st5">)<v:newlineChar/></tspan><tspan x="4"
						dy="1.2em" class="st5">Q</tspan><tspan class="st5">8</tspan><tspan class="st5">: </tspan><tspan class="st5">Find an average rating with a known id </tspan><tspan
						class="st5">(</tspan><tspan class="st5">show most recent comments first</tspan><tspan class="st5">)<v:newlineChar/></tspan><tspan
						x="4" dy="1.2em" class="st5">Q</tspan><tspan class="st5">9</tspan><tspan class="st5">: </tspan><tspan
						class="st5">Find a video with a specified video id<v:newlineChar/></tspan><tspan x="4" dy="1.2em"
						class="st5">Q</tspan><tspan class="st5">10</tspan><tspan class="st5">: </tspan><tspan class="st5">Find actors for a video with a known id</tspan></text>		</g>
		<g id="shape83-61" v:mID="83" v:groupContext="shape" transform="translate(642.036,-902.735)">
			<title>Sheet.83</title>
			<desc>Q7</desc>
			<v:textBlock v:margins="rect(4,4,4,4)"/>
			<v:textRect cx="18.125" cy="1178" width="36.26" height="20"/>
			<rect x="0" y="1168" width="36.25" height="20" class="st6"/>
			<text x="11.05" y="1181.6" class="st7" v:langID="1033"><v:paragraph v:horizAlign="1"/><v:tabList/>Q7</text>		</g>
		<g id="shape88-64" v:mID="88" v:groupContext="shape" transform="translate(822.036,-902.735)">
			<title>Sheet.88</title>
			<desc>Q9</desc>
			<v:textBlock v:margins="rect(4,4,4,4)"/>
			<v:textRect cx="76" cy="1178" width="152.01" height="20"/>
			<rect x="0" y="1168" width="152" height="20" class="st6"/>
			<text x="68.92" y="1181.6" class="st7" v:langID="1033"><v:paragraph v:horizAlign="1"/><v:tabList/>Q9</text>		</g>
		<g id="shape93-67" v:mID="93" v:groupContext="shape" transform="translate(703.286,-902.735)">
			<title>Sheet.93</title>
			<desc>Q8</desc>
			<v:textBlock v:margins="rect(4,4,4,4)"/>
			<v:textRect cx="76" cy="1178" width="152.01" height="20"/>
			<rect x="0" y="1168" width="152" height="20" class="st6"/>
			<text x="68.92" y="1181.6" class="st7" v:langID="1033"><v:paragraph v:horizAlign="1"/><v:tabList/>Q8</text>		</g>
		<g id="shape122-70" v:mID="122" v:groupContext="shape" v:layerMember="0" transform="translate(371.25,-1017)">
			<title>Dynamic connector.122</title>
			<path d="M0 1179 L362.71 1179" class="st8"/>
		</g>
		<g id="shape84-76" v:mID="84" v:groupContext="shape" transform="translate(700.25,-1058.75)">
			<title>Sheet.84</title>
			<desc>Q2</desc>
			<v:textBlock v:margins="rect(4,4,4,4)"/>
			<v:textRect cx="76" cy="1178" width="152.01" height="20"/>
			<rect x="0" y="1168" width="152" height="20" class="st6"/>
			<text x="68.92" y="1181.6" class="st7" v:langID="1033"><v:paragraph v:horizAlign="1"/><v:tabList/>Q2</text>		</g>
		<g id="shape130-79" v:mID="130" v:groupContext="shape" v:layerMember="0" transform="translate(804.75,-1116)">
			<title>Dynamic connector.130</title>
			<path d="M-8.25 1188 L-9.75 1188 L-9.75 1234.96" class="st8"/>
		</g>
		<g id="shape12-84" v:mID="12" v:groupContext="shape" v:layerMember="0" transform="translate(307.125,-1116)">
			<title>Dynamic connector</title>
			<path d="M7.87 1188 L10.12 1188 L10.12 1234.96" class="st8"/>
		</g>
		<g id="shape77-89" v:mID="77" v:groupContext="shape" transform="translate(226,-1062)">
			<title>Sheet.77</title>
			<desc>Q1</desc>
			<v:textBlock v:margins="rect(4,4,4,4)"/>
			<v:textRect cx="76" cy="1178" width="152.01" height="20"/>
			<rect x="0" y="1168" width="152" height="20" class="st6"/>
			<text x="68.92" y="1181.6" class="st7" v:langID="1033"><v:paragraph v:horizAlign="1"/><v:tabList/>Q1</text>		</g>
		<g id="shape78-92" v:mID="78" v:groupContext="shape" transform="translate(178.75,-901.25)">
			<title>Sheet.78</title>
			<desc>Q4</desc>
			<v:textBlock v:margins="rect(4,4,4,4)"/>
			<v:textRect cx="76" cy="1178" width="152.01" height="20"/>
			<rect x="0" y="1168" width="152" height="20" class="st6"/>
			<text x="68.92" y="1181.6" class="st7" v:langID="1033"><v:paragraph v:horizAlign="1"/><v:tabList/>Q4</text>		</g>
		<g id="shape85-95" v:mID="85" v:groupContext="shape" transform="translate(300.286,-902.735)">
			<title>Sheet.85</title>
			<desc>Q5</desc>
			<v:textBlock v:margins="rect(4,4,4,4)"/>
			<v:textRect cx="76" cy="1178" width="152.01" height="20"/>
			<rect x="0" y="1168" width="152" height="20" class="st6"/>
			<text x="68.92" y="1181.6" class="st7" v:langID="1033"><v:paragraph v:horizAlign="1"/><v:tabList/>Q5</text>		</g>
		<g id="shape87-98" v:mID="87" v:groupContext="shape" transform="translate(416.536,-901.735)">
			<title>Sheet.87</title>
			<desc>Q6</desc>
			<v:textBlock v:margins="rect(4,4,4,4)"/>
			<v:textRect cx="76" cy="1178" width="152.01" height="20"/>
			<rect x="0" y="1168" width="152" height="20" class="st6"/>
			<text x="68.92" y="1181.6" class="st7" v:langID="1033"><v:paragraph v:horizAlign="1"/><v:tabList/>Q6</text>		</g>
		<g id="shape138-101" v:mID="138" v:groupContext="shape" v:layerMember="0" transform="translate(317.25,-990)">
			<title>Dynamic connector.138</title>
			<path d="M0 1188 L0 1215 L72.79 1215 L72.79 1268.24" class="st8"/>
		</g>
		<g id="shape139-106" v:mID="139" v:groupContext="shape" v:layerMember="0" transform="translate(390.036,-963)">
			<title>Dynamic connector.139</title>
			<path d="M0 1188 L-234.79 1188 L-234.79 1241.24" class="st8"/>
		</g>
		<g id="shape140-111" v:mID="140" v:groupContext="shape" v:layerMember="0" transform="translate(389.25,-963)">
			<title>Dynamic connector.140</title>
			<path d="M0 1188 L117.79 1188 L117.79 1241.24" class="st8"/>
		</g>
		<g id="shape144-116" v:mID="144" v:groupContext="shape" v:layerMember="0" transform="translate(786.018,-990)">
			<title>Dynamic connector.144</title>
			<path d="M8.98 1188 L8.98 1201.5 L9.02 1201.5 L9.02 1268.24" class="st8"/>
		</g>
		<g id="shape150-121" v:mID="150" v:groupContext="shape" transform="translate(499.036,-866.735)">
			<title>Sheet.150</title>
			<desc>Q6</desc>
			<v:textBlock v:margins="rect(4,4,4,4)"/>
			<v:textRect cx="76" cy="1178" width="152.01" height="20"/>
			<rect x="0" y="1168" width="152" height="20" class="st6"/>
			<text x="68.92" y="1181.6" class="st7" v:langID="1033"><v:paragraph v:horizAlign="1"/><v:tabList/>Q6</text>		</g>
		<g id="shape159-124" v:mID="159" v:groupContext="shape" transform="translate(650.25,-1026)">
			<title>Sheet.159</title>
			<desc>Q2</desc>
			<v:textBlock v:margins="rect(4,4,4,4)"/>
			<v:textRect cx="76" cy="1178" width="152.01" height="20"/>
			<rect x="0" y="1168" width="152" height="20" class="st6"/>
			<text x="68.92" y="1181.6" class="st7" v:langID="1033"><v:paragraph v:horizAlign="1"/><v:tabList/>Q2</text>		</g>
		<g id="shape165-127" v:mID="165" v:groupContext="shape" v:layerMember="0" transform="translate(390.036,-821.721)">
			<title>Dynamic connector.165</title>
			<path d="M0 1179 L0 1211.4 L405 1211.4 L405 1186.04" class="st8"/>
		</g>
		<g id="shape166-132" v:mID="166" v:groupContext="shape" v:layerMember="0" transform="translate(498.036,-830.721)">
			<title>Dynamic connector.166</title>
			<path d="M9 1188 L9 1219.5" class="st10"/>
		</g>
		<g id="shape167-135" v:mID="167" v:groupContext="shape" v:layerMember="0" transform="translate(669.039,-798.321)">
			<title>Dynamic connector.167</title>
			<path d="M9 1188 L9 1140.06 L9 1140.06" class="st11"/>
		</g>
		<g id="shape170-141" v:mID="170" v:groupContext="shape" transform="translate(642.036,-811.649)">
			<title>Sheet.170</title>
			<desc>Q7</desc>
			<v:textBlock v:margins="rect(4,4,4,4)"/>
			<v:textRect cx="18.2321" cy="1178" width="36.47" height="20"/>
			<rect x="0" y="1168" width="36.4643" height="20" class="st6"/>
			<text x="11.15" y="1181.6" class="st7" v:langID="1033"><v:paragraph v:horizAlign="1"/><v:tabList/>Q7</text>		</g>
		<g id="shape172-144" v:mID="172" v:groupContext="shape" transform="translate(822.25,-811.649)">
			<title>Sheet.172</title>
			<desc>Q9</desc>
			<v:textBlock v:margins="rect(4,4,4,4)"/>
			<v:textRect cx="76" cy="1178" width="152.01" height="20"/>
			<rect x="0" y="1168" width="152" height="20" class="st6"/>
			<text x="68.92" y="1181.6" class="st7" v:langID="1033"><v:paragraph v:horizAlign="1"/><v:tabList/>Q9</text>		</g>
		<g id="shape173-147" v:mID="173" v:groupContext="shape" transform="translate(703.5,-811.649)">
			<title>Sheet.173</title>
			<desc>Q8</desc>
			<v:textBlock v:margins="rect(4,4,4,4)"/>
			<v:textRect cx="76" cy="1178" width="152.01" height="20"/>
			<rect x="0" y="1168" width="152" height="20" class="st6"/>
			<text x="68.92" y="1181.6" class="st7" v:langID="1033"><v:paragraph v:horizAlign="1"/><v:tabList/>Q8</text>		</g>
		<g id="shape177-150" v:mID="177" v:groupContext="shape" transform="translate(741.036,-830.721)">
			<title>Rounded rectangle</title>
			<desc>Show ratings for a video</desc>
			<v:userDefs>
				<v:ud v:nameU="visVersion" v:val="VT0(14):26"/>
			</v:userDefs>
			<v:textBlock v:margins="rect(4,4,4,4)"/>
			<v:textRect cx="54" cy="1152" width="108" height="72"/>
			<path d="M99 1188 A9.00007 9.00007 -180 0 0 108 1179 L108 1125 A9.00007 9.00007 -180 0 0 99 1116 L9 1116 A9.00007 9.00007
						 -180 0 0 0 1125 L0 1179 A9.00007 9.00007 -180 0 0 9 1188 L99 1188 Z" class="st12"/>
			<text x="4.99" y="1155" class="st13" v:langID="1033"><v:paragraph v:horizAlign="1"/><v:tabList/>Show ratings for a video</text>		</g>
		<g id="shape9-153" v:mID="9" v:groupContext="shape" transform="translate(263.25,-990)">
			<title>Rounded rectangle.9</title>
			<desc>User logs into site</desc>
			<v:userDefs>
				<v:ud v:nameU="visVersion" v:val="VT0(14):26"/>
			</v:userDefs>
			<v:textBlock v:margins="rect(4,4,4,4)"/>
			<v:textRect cx="54" cy="1152" width="108" height="72"/>
			<path d="M99 1188 A9.00007 9.00007 -180 0 0 108 1179 L108 1125 A9.00007 9.00007 -180 0 0 99 1116 L9 1116 A9.00007 9.00007
						 -180 0 0 0 1125 L0 1179 A9.00007 9.00007 -180 0 0 9 1188 L99 1188 Z" class="st12"/>
			<text x="17.77" y="1155" class="st13" v:langID="1033"><v:paragraph v:horizAlign="1"/><v:tabList/>User logs into site</text>		</g>
		<g id="shape11-156" v:mID="11" v:groupContext="shape" transform="translate(741,-990)">
			<title>Rounded rectangle.11</title>
			<desc>Show latest videos added to the site</desc>
			<v:userDefs>
				<v:ud v:nameU="visVersion" v:val="VT0(14):26"/>
			</v:userDefs>
			<v:textBlock v:margins="rect(4,4,4,4)"/>
			<v:textRect cx="54" cy="1152" width="108" height="72"/>
			<path d="M99 1188 A9.00007 9.00007 -180 0 0 108 1179 L108 1125 A9.00007 9.00007 -180 0 0 99 1116 L9 1116 A9.00007 9.00007
						 -180 0 0 0 1125 L0 1179 A9.00007 9.00007 -180 0 0 9 1188 L99 1188 Z" class="st12"/>
			<text x="16.16" y="1149" class="st13" v:langID="1033"><v:paragraph v:horizAlign="1"/><v:tabList/>Show latest videos <tspan
						x="19.48" dy="1.2em" class="st14">added to the site</tspan></text>		</g>
		<g id="shape14-160" v:mID="14" v:groupContext="shape" transform="translate(624.036,-830.735)">
			<title>Rounded rectangle.14</title>
			<desc>Show comments for a video</desc>
			<v:userDefs>
				<v:ud v:nameU="visVersion" v:val="VT0(14):26"/>
			</v:userDefs>
			<v:textBlock v:margins="rect(4,4,4,4)"/>
			<v:textRect cx="54" cy="1152" width="108" height="72"/>
			<path d="M99 1188 A9.00007 9.00007 -180 0 0 108 1179 L108 1125 A9.00007 9.00007 -180 0 0 99 1116 L9 1116 A9.00007 9.00007
						 -180 0 0 0 1125 L0 1179 A9.00007 9.00007 -180 0 0 9 1188 L99 1188 Z" class="st12"/>
			<text x="9.69" y="1149" class="st13" v:langID="1033"><v:paragraph v:horizAlign="1"/><v:tabList/>Show comments for a <tspan
						x="42.84" dy="1.2em" class="st14">video</tspan></text>		</g>
		<g id="shape16-164" v:mID="16" v:groupContext="shape" transform="translate(101.25,-830.721)">
			<title>Rounded rectangle.16</title>
			<desc>Show basic information about user</desc>
			<v:userDefs>
				<v:ud v:nameU="visVersion" v:val="VT0(14):26"/>
			</v:userDefs>
			<v:textBlock v:margins="rect(4,4,4,4)"/>
			<v:textRect cx="54" cy="1152" width="108" height="72"/>
			<path d="M99 1188 A9.00007 9.00007 -180 0 0 108 1179 L108 1125 A9.00007 9.00007 -180 0 0 99 1116 L9 1116 A9.00007 9.00007
						 -180 0 0 0 1125 L0 1179 A9.00007 9.00007 -180 0 0 9 1188 L99 1188 Z" class="st12"/>
			<text x="6.21" y="1149" class="st13" v:langID="1033"><v:paragraph v:horizAlign="1"/><v:tabList/>Show basic information <tspan
						x="32.1" dy="1.2em" class="st14">about user</tspan></text>		</g>
		<g id="shape17-168" v:mID="17" v:groupContext="shape" transform="translate(336.036,-830.721)">
			<title>Rounded rectangle.17</title>
			<desc>Show videos added by a user</desc>
			<v:userDefs>
				<v:ud v:nameU="visVersion" v:val="VT0(14):26"/>
			</v:userDefs>
			<v:textBlock v:margins="rect(4,4,4,4)"/>
			<v:textRect cx="54" cy="1152" width="108" height="72"/>
			<path d="M99 1188 A9.00007 9.00007 -180 0 0 108 1179 L108 1125 A9.00007 9.00007 -180 0 0 99 1116 L9 1116 A9.00007 9.00007
						 -180 0 0 0 1125 L0 1179 A9.00007 9.00007 -180 0 0 9 1188 L99 1188 Z" class="st12"/>
			<text x="5.18" y="1149" class="st13" v:langID="1033"><v:paragraph v:horizAlign="1"/><v:tabList/>Show videos added by a <tspan
						x="45.19" dy="1.2em" class="st14">user</tspan></text>		</g>
		<g id="shape18-172" v:mID="18" v:groupContext="shape" transform="translate(453.036,-830.721)">
			<title>Rounded rectangle.18</title>
			<desc>Show comments posted by a user</desc>
			<v:userDefs>
				<v:ud v:nameU="visVersion" v:val="VT0(14):26"/>
			</v:userDefs>
			<v:textBlock v:margins="rect(4,4,4,4)"/>
			<v:textRect cx="54" cy="1152" width="108" height="72"/>
			<path d="M99 1188 A9.00007 9.00007 -180 0 0 108 1179 L108 1125 A9.00007 9.00007 -180 0 0 99 1116 L9 1116 A9.00007 9.00007
						 -180 0 0 0 1125 L0 1179 A9.00007 9.00007 -180 0 0 9 1188 L99 1188 Z" class="st12"/>
			<text x="5.11" y="1149" class="st13" v:langID="1033"><v:paragraph v:horizAlign="1"/><v:tabList/>Show comments posted <tspan
						x="35.64" dy="1.2em" class="st14">by a user</tspan></text>		</g>
		<g id="shape8-176" v:mID="8" v:groupContext="shape" v:layerMember="0" transform="translate(624.036,-875.728)">
			<title>Dynamic connector.8</title>
			<path d="M0 1196.99 L-13.5 1196.99 L-13.5 1197.01 L-55.96 1197.01" class="st8"/>
		</g>
		<g id="shape1-181" v:mID="1" v:groupContext="shape" transform="translate(858.036,-830.721)">
			<title>Rounded rectangle.15</title>
			<desc>Show a video and its details</desc>
			<v:userDefs>
				<v:ud v:nameU="visVersion" v:val="VT0(14):26"/>
			</v:userDefs>
			<v:textBlock v:margins="rect(4,4,4,4)"/>
			<v:textRect cx="54" cy="1152" width="108" height="72"/>
			<path d="M99 1188 A9.00007 9.00007 -180 0 0 108 1179 L108 1125 A9.00007 9.00007 -180 0 0 99 1116 L9 1116 A9.00007 9.00007
						 -180 0 0 0 1125 L0 1179 A9.00007 9.00007 -180 0 0 9 1188 L99 1188 Z" class="st12"/>
			<text x="12.36" y="1149" class="st13" v:langID="1033"><v:paragraph v:horizAlign="1"/><v:tabList/>Show a video and its <tspan
						x="40.56" dy="1.2em" class="st14">details</tspan></text>		</g>
		<g id="shape2-185" v:mID="2" v:groupContext="shape" transform="translate(218.25,-830.721)">
			<title>Rounded rectangle.2</title>
			<desc>Show video interactions by a user</desc>
			<v:userDefs>
				<v:ud v:nameU="visVersion" v:val="VT0(14):26"/>
			</v:userDefs>
			<v:textBlock v:margins="rect(4,4,4,4)"/>
			<v:textRect cx="54" cy="1152" width="108" height="72"/>
			<path d="M99 1188 A9.00007 9.00007 -180 0 0 108 1179 L108 1125 A9.00007 9.00007 -180 0 0 99 1116 L9 1116 A9.00007 9.00007
						 -180 0 0 0 1125 L0 1179 A9.00007 9.00007 -180 0 0 9 1188 L99 1188 Z" class="st12"/>
			<text x="5.22" y="1149" class="st13" v:langID="1033"><v:paragraph v:horizAlign="1"/><v:tabList/>Show video interactions  <tspan
						x="35.64" dy="1.2em" class="st14">by a user</tspan></text>		</g>
		<g id="shape3-189" v:mID="3" v:groupContext="shape" transform="translate(1001.25,-830.721)">
			<title>Rounded rectangle.3</title>
			<desc>Show actor information for a video</desc>
			<v:userDefs>
				<v:ud v:nameU="visVersion" v:val="VT0(14):26"/>
			</v:userDefs>
			<v:textBlock v:margins="rect(4,4,4,4)"/>
			<v:textRect cx="54" cy="1152" width="108" height="72"/>
			<path d="M99 1188 A9.00007 9.00007 -180 0 0 108 1179 L108 1125 A9.00007 9.00007 -180 0 0 99 1116 L9 1116 A9.00007 9.00007
						 -180 0 0 0 1125 L0 1179 A9.00007 9.00007 -180 0 0 9 1188 L99 1188 Z" class="st12"/>
			<text x="5.88" y="1149" class="st13" v:langID="1033"><v:paragraph v:horizAlign="1"/><v:tabList/>Show actor information <tspan
						x="32.28" dy="1.2em" class="st14">for a video</tspan></text>		</g>
		<g id="shape4-193" v:mID="4" v:groupContext="shape" v:layerMember="0" transform="translate(263.25,-963)">
			<title>Dynamic connector.4</title>
			<path d="M9 1188 L9 1241.24" class="st8"/>
		</g>
		<g id="shape5-198" v:mID="5" v:groupContext="shape" transform="translate(61.75,-901.25)">
			<title>Sheet.5</title>
			<desc>Q3</desc>
			<v:textBlock v:margins="rect(4,4,4,4)"/>
			<v:textRect cx="76" cy="1178" width="152.01" height="20"/>
			<rect x="0" y="1168" width="152" height="20" class="st6"/>
			<text x="68.92" y="1181.6" class="st7" v:langID="1033"><v:paragraph v:horizAlign="1"/><v:tabList/>Q3</text>		</g>
		<g id="shape6-201" v:mID="6" v:groupContext="shape" transform="translate(912.25,-864)">
			<title>Sheet.6</title>
			<desc>Q10</desc>
			<v:textBlock v:margins="rect(4,4,4,4)"/>
			<v:textRect cx="76" cy="1178" width="152.01" height="20"/>
			<rect x="0" y="1168" width="152" height="20" class="st6"/>
			<text x="65.88" y="1181.6" class="st7" v:langID="1033"><v:paragraph v:horizAlign="1"/><v:tabList/>Q10</text>		</g>
		<g id="shape7-204" v:mID="7" v:groupContext="shape" v:layerMember="0" transform="translate(966.036,-857.721)">
			<title>Dynamic connector.7</title>
			<path d="M0 1179 L28.17 1179" class="st8"/>
		</g>
		<g id="shape13-209" v:mID="13" v:groupContext="shape" v:layerMember="0" transform="translate(795.036,-954)">
			<title>Dynamic connector.13</title>
			<path d="M0 1188 L117 1188 L117 1232.24" class="st8"/>
		</g>
		<g id="shape15-214" v:mID="15" v:groupContext="shape" v:layerMember="0" transform="translate(795.036,-954)">
			<title>Dynamic connector.15</title>
			<path d="M0 1188 L-117 1188 L-117 1232.23" class="st8"/>
		</g>
		<g id="shape19-219" v:mID="19" v:groupContext="shape" v:layerMember="0" transform="translate(794.25,-798.321)">
			<title>Dynamic connector.19</title>
			<path d="M0 1188 L117.79 1188 L117.79 1162.64" class="st8"/>
		</g>
	</g>
</svg>
