<?xml version="1.0" encoding="UTF-8" standalone="no"?>
<!DOCTYPE svg PUBLIC "-//W3C//DTD SVG 1.0//EN" "http://www.w3.org/TR/2001/REC-SVG-20010904/DTD/svg10.dtd">
<!-- Generated by Microsoft Visio 11.0, SVG Export, v1.0 application_workflow.svg Page-1 -->
<svg xmlns="http://www.w3.org/2000/svg" xmlns:xlink="http://www.w3.org/1999/xlink" xmlns:ev="http://www.w3.org/2001/xml-events"
		xmlns:v="http://schemas.microsoft.com/visio/2003/SVGExtensions/" width="21.5in" height="16.5in" viewBox="0 0 1548 1188"
		xml:space="preserve" color-interpolation-filters="sRGB" class="st15">
	<v:documentProperties v:langID="1033" v:viewMarkup="false">
		<v:userDefs>
			<v:ud v:nameU="msvSubprocessMaster" v:prompt="" v:val="VT4(Rectangle)"/>
			<v:ud v:nameU="msvNoAutoConnect" v:val="VT0(1):26"/>
			<v:ud v:nameU="msvConvertTheme"/>
		</v:userDefs>
	</v:documentProperties>

	<style type="text/css">
	<![CDATA[
		.st1 {visibility:visible}
		.st2 {fill:#000000;fill-opacity:0.4;stroke:#000000;stroke-opacity:0.4;stroke-width:0.25}
		.st3 {fill:#ffffff;stroke:#e8ebef;stroke-width:0.25}
		.st4 {fill:#41719c;font-family:Calibri;font-size:0.833336em;font-weight:bold}
		.st5 {font-size:1em;font-weight:normal}
		.st6 {fill:none;stroke:none;stroke-width:0.25}
		.st7 {fill:#5b9bd5;font-family:Calibri;font-size:1.00001em}
		.st8 {marker-end:url(#mrkr4-113);stroke:#5b9bd5;stroke-linecap:round;stroke-linejoin:round;stroke-width:1}
		.st9 {fill:#5b9bd5;fill-opacity:1;stroke:#5b9bd5;stroke-opacity:1;stroke-width:0.28409090909091}
		.st10 {stroke:#5b9bd5;stroke-linecap:round;stroke-linejoin:round;stroke-width:1}
		.st11 {marker-end:url(#mrkr4-199);stroke:#5b9bd5;stroke-linecap:round;stroke-linejoin:round;stroke-width:1}
		.st12 {fill:#e8eef7;stroke:#000000;stroke-linecap:round;stroke-linejoin:round;stroke-width:0.24}
		.st13 {fill:#000000;font-family:Calibri;font-size:0.833336em}
		.st14 {font-size:1em}
		.st15 {fill:none;fill-rule:evenodd;font-size:12;overflow:visible;stroke-linecap:square;stroke-miterlimit:3}
	]]>
	</style>

	<defs id="Markers">
		<g id="lend4">
			<path d="M 2 1 L 0 0 L 2 -1 L 2 1 " style="stroke:none"/>
		</g>
		<marker id="mrkr4-113" class="st9" v:arrowType="4" v:arrowSize="2" v:setback="7.04" refX="-7.04" orient="auto"
				markerUnits="strokeWidth">
			<use xlink:href="#lend4" transform="scale(-3.52,-3.52) "/>
		</marker>
		<marker id="mrkr4-199" class="st9" v:arrowType="4" v:arrowSize="2" v:setback="0" refX="-0" orient="auto"
				markerUnits="strokeWidth">
			<use xlink:href="#lend4" transform="scale(-3.52,-3.52) "/>
		</marker>
	</defs>
	<g v:mID="0" v:index="1" v:groupContext="foregroundPage">
		<title>Page-1</title>
		<v:pageProperties v:drawingScale="1" v:pageScale="1" v:drawingUnits="0" v:shadowOffsetX="9" v:shadowOffsetY="-9"/>
		<v:layer v:name="Connector" v:index="0"/>
		<g id="shape10-1" v:mID="10" v:groupContext="shape" transform="translate(777.75,-517.5)">
			<title>Rectangle.10</title>
			<desc>Access Patterns Q1: Find a user with a specified email Q2: Fi...</desc>
			<v:userDefs>
				<v:ud v:nameU="visVersion" v:val="VT0(15):26"/>
			</v:userDefs>
			<v:textBlock v:margins="rect(4,4,4,4)"/>
			<v:textRect cx="185.25" cy="1073.25" width="370.5" height="229.5"/>
			<g id="shadow10-2" v:groupContext="shadow" v:shadowOffsetX="2.12132" v:shadowOffsetY="-2.12132" v:shadowType="1"
					transform="matrix(1,0,0,1,2.12132,2.12132)" class="st1">
				<rect x="0" y="958.5" width="370.5" height="229.5" class="st2"/>
			</g>
			<rect x="0" y="958.5" width="370.5" height="229.5" class="st3"/>
			<text x="4" y="980.25" class="st4" v:langID="1033"><v:paragraph/><v:tabList/>Access Patterns<v:newlineChar/><v:newlineChar/><tspan
						x="4" dy="2.4em" class="st5">Q</tspan><tspan class="st5">1</tspan><tspan class="st5">: </tspan><tspan
						class="st5">Find a user with a specified email<v:newlineChar/></tspan><tspan x="4" dy="1.2em" class="st5">Q</tspan><tspan
						class="st5">2</tspan><tspan class="st5">: </tspan><tspan class="st5">Find videos with a specified upload timestamp range </tspan><tspan
						class="st5">(</tspan><tspan class="st5">latest first</tspan><tspan class="st5">)<v:newlineChar/></tspan><tspan
						x="4" dy="1.2em" class="st5">Q</tspan><tspan class="st5">3</tspan><tspan class="st5">: </tspan><tspan
						class="st5">Find videos with a specified tag </tspan><tspan class="st5">(</tspan><tspan class="st5">latest first</tspan><tspan
						class="st5">) <v:newlineChar/></tspan><tspan x="4" dy="1.2em" class="st5">Q</tspan><tspan class="st5">4</tspan><tspan
						class="st5">: </tspan><tspan class="st5">Find videos with a specified title </tspan><tspan class="st5">(</tspan><tspan
						class="st5">latest first</tspan><tspan class="st5">)<v:newlineChar/></tspan><tspan x="4" dy="1.2em"
						class="st5">Q</tspan><tspan class="st5">5</tspan><tspan class="st5">: </tspan><tspan class="st5">Find a video with a specified title and release year </tspan><tspan
						class="st5">(</tspan><tspan class="st5">latest first</tspan><tspan class="st5">)<v:newlineChar/></tspan><tspan
						x="4" dy="1.2em" class="st5">Q</tspan><tspan class="st5">6</tspan><tspan class="st5">: </tspan><tspan
						class="st5">Find videos with a specified actor and release year range </tspan><tspan class="st5">(</tspan><tspan
						class="st5">latest first</tspan><tspan class="st5">)<v:newlineChar/></tspan><tspan x="4" dy="1.2em"
						class="st5">Q</tspan><tspan class="st5">7</tspan><tspan class="st5">: </tspan><tspan class="st5">Find videos with a specified genre and release year range </tspan><tspan
						class="st5">(</tspan><tspan class="st5">latest first</tspan><tspan class="st5">)<v:newlineChar/></tspan><tspan
						x="4" dy="1.2em" class="st5">Q</tspan><tspan class="st5">8</tspan><tspan class="st5">: </tspan><tspan
						class="st5">Find videos with a specified actor and genre and release year range </tspan><tspan class="st5">(</tspan><tspan
						class="st5">latest first</tspan><tspan class="st5">)<v:newlineChar/></tspan><tspan x="4" dy="1.2em"
						class="st5">Q</tspan><tspan class="st5">9</tspan><tspan class="st5">: </tspan><tspan class="st5">Find videos with a specified country </tspan><tspan
						class="st5">(</tspan><tspan class="st5">latest first</tspan><tspan class="st5">)<v:newlineChar/></tspan><tspan
						x="4" dy="1.2em" class="st5">Q</tspan><tspan class="st5">10</tspan><tspan class="st5">: </tspan><tspan
						class="st5">Find a user with a specified user id<v:newlineChar/></tspan><tspan x="4" dy="1.2em" class="st5">Q</tspan><tspan
						class="st5">11</tspan><tspan class="st5">: </tspan><tspan class="st5">Find videos with a specified user id </tspan><tspan
						class="st5">(</tspan><tspan class="st5">latest first</tspan><tspan class="st5">)<v:newlineChar/></tspan><tspan
						x="4" dy="1.2em" class="st5">Q</tspan><tspan class="st5">12</tspan><tspan class="st5">: </tspan><tspan
						class="st5">Find comments with a specified user id </tspan><tspan class="st5">(</tspan><tspan class="st5">latest first</tspan><tspan
						class="st5">)<v:newlineChar/></tspan><tspan x="4" dy="1.2em" class="st5">Q</tspan><tspan class="st5">13</tspan><tspan
						class="st5">: </tspan><tspan class="st5">Find comments with a specified video id </tspan><tspan class="st5">(</tspan><tspan
						class="st5">latest first</tspan><tspan class="st5">)<v:newlineChar/></tspan><tspan x="4" dy="1.2em"
						class="st5">Q</tspan><tspan class="st5">14</tspan><tspan class="st5">: </tspan><tspan class="st5">Find a video with a specified video id<v:newlineChar/></tspan><tspan
						x="4" dy="1.2em" class="st5">Q</tspan><tspan class="st5">15</tspan><tspan class="st5">: </tspan><tspan
						class="st5">Find a rating with a specified video id</tspan></text>		</g>
		<g id="shape83-99" v:mID="83" v:groupContext="shape" transform="translate(1197,-868.514)">
			<title>Sheet.83</title>
			<desc>Q13</desc>
			<v:textBlock v:margins="rect(4,4,4,4)"/>
			<v:textRect cx="18.125" cy="1178" width="36.26" height="20"/>
			<rect x="0" y="1168" width="36.25" height="20" class="st6"/>
			<text x="8.01" y="1181.6" class="st7" v:langID="1033"><v:paragraph v:horizAlign="1"/><v:tabList/>Q13</text>		</g>
		<g id="shape88-102" v:mID="88" v:groupContext="shape" transform="translate(1377,-868.514)">
			<title>Sheet.88</title>
			<desc>Q15</desc>
			<v:textBlock v:margins="rect(4,4,4,4)"/>
			<v:textRect cx="76" cy="1178" width="152.01" height="20"/>
			<rect x="0" y="1168" width="152" height="20" class="st6"/>
			<text x="65.88" y="1181.6" class="st7" v:langID="1033"><v:paragraph v:horizAlign="1"/><v:tabList/>Q15</text>		</g>
		<g id="shape93-105" v:mID="93" v:groupContext="shape" transform="translate(1258.25,-868.514)">
			<title>Sheet.93</title>
			<desc>Q14</desc>
			<v:textBlock v:margins="rect(4,4,4,4)"/>
			<v:textRect cx="76" cy="1178" width="152.01" height="20"/>
			<rect x="0" y="1168" width="152" height="20" class="st6"/>
			<text x="65.88" y="1181.6" class="st7" v:langID="1033"><v:paragraph v:horizAlign="1"/><v:tabList/>Q14</text>		</g>
		<g id="shape122-108" v:mID="122" v:groupContext="shape" v:layerMember="0" transform="translate(999,-1071)">
			<title>Dynamic connector.122</title>
			<path d="M0 1179 L172.96 1179" class="st8"/>
		</g>
		<g id="shape84-114" v:mID="84" v:groupContext="shape" transform="translate(1144.73,-1112.75)">
			<title>Sheet.84</title>
			<desc>Q2</desc>
			<v:textBlock v:margins="rect(4,4,4,4)"/>
			<v:textRect cx="76" cy="1178" width="152.01" height="20"/>
			<rect x="0" y="1168" width="152" height="20" class="st6"/>
			<text x="68.92" y="1181.6" class="st7" v:langID="1033"><v:paragraph v:horizAlign="1"/><v:tabList/>Q2</text>		</g>
		<g id="shape130-117" v:mID="130" v:groupContext="shape" v:layerMember="0" transform="translate(1223.86,-1170)">
			<title>Dynamic connector.130</title>
			<path d="M8.86 1188 L9.14 1188 L9.14 1234.96" class="st8"/>
		</g>
		<g id="shape79-122" v:mID="79" v:groupContext="shape" transform="translate(1310.71,-1035)">
			<title>Sheet.79</title>
			<desc>Q3,Q4,Q5,Q6,Q7,Q8,Q9</desc>
			<v:textBlock v:margins="rect(4,4,4,4)"/>
			<v:textRect cx="107.393" cy="1178" width="214.79" height="20"/>
			<rect x="0" y="1168" width="214.786" height="20" class="st6"/>
			<text x="48.86" y="1181.6" class="st7" v:langID="1033"><v:paragraph v:horizAlign="1"/><v:tabList/>Q3,Q4,Q5,Q6,Q7,Q8,Q9</text>		</g>
		<g id="shape12-125" v:mID="12" v:groupContext="shape" v:layerMember="0" transform="translate(935.871,-1170)">
			<title>Dynamic connector</title>
			<path d="M8.87 1188 L9.13 1188 L9.13 1234.96" class="st8"/>
		</g>
		<g id="shape77-130" v:mID="77" v:groupContext="shape" transform="translate(856,-1116)">
			<title>Sheet.77</title>
			<desc>Q1</desc>
			<v:textBlock v:margins="rect(4,4,4,4)"/>
			<v:textRect cx="76" cy="1178" width="152.01" height="20"/>
			<rect x="0" y="1168" width="152" height="20" class="st6"/>
			<text x="68.92" y="1181.6" class="st7" v:langID="1033"><v:paragraph v:horizAlign="1"/><v:tabList/>Q1</text>		</g>
		<g id="shape78-133" v:mID="78" v:groupContext="shape" transform="translate(738,-868.514)">
			<title>Sheet.78</title>
			<desc>Q10</desc>
			<v:textBlock v:margins="rect(4,4,4,4)"/>
			<v:textRect cx="76" cy="1178" width="152.01" height="20"/>
			<rect x="0" y="1168" width="152" height="20" class="st6"/>
			<text x="65.88" y="1181.6" class="st7" v:langID="1033"><v:paragraph v:horizAlign="1"/><v:tabList/>Q10</text>		</g>
		<g id="shape85-136" v:mID="85" v:groupContext="shape" transform="translate(855.25,-868.514)">
			<title>Sheet.85</title>
			<desc>Q11</desc>
			<v:textBlock v:margins="rect(4,4,4,4)"/>
			<v:textRect cx="76" cy="1178" width="152.01" height="20"/>
			<rect x="0" y="1168" width="152" height="20" class="st6"/>
			<text x="65.88" y="1181.6" class="st7" v:langID="1033"><v:paragraph v:horizAlign="1"/><v:tabList/>Q11</text>		</g>
		<g id="shape87-139" v:mID="87" v:groupContext="shape" transform="translate(971.5,-867.514)">
			<title>Sheet.87</title>
			<desc>Q12</desc>
			<v:textBlock v:margins="rect(4,4,4,4)"/>
			<v:textRect cx="76" cy="1178" width="152.01" height="20"/>
			<rect x="0" y="1168" width="152" height="20" class="st6"/>
			<text x="65.88" y="1181.6" class="st7" v:langID="1033"><v:paragraph v:horizAlign="1"/><v:tabList/>Q12</text>		</g>
		<g id="shape138-142" v:mID="138" v:groupContext="shape" v:layerMember="0" transform="translate(936,-1044)">
			<title>Dynamic connector.138</title>
			<path d="M9 1188 L9 1356.46" class="st8"/>
		</g>
		<g id="shape139-147" v:mID="139" v:groupContext="shape" v:layerMember="0" transform="translate(944.606,-931.458)">
			<title>Dynamic connector.139</title>
			<path d="M0 1188 L-116.61 1188 L-116.61 1243.92" class="st8"/>
		</g>
		<g id="shape140-152" v:mID="140" v:groupContext="shape" v:layerMember="0" transform="translate(945,-931.458)">
			<title>Dynamic connector.140</title>
			<path d="M0 1188 L117 1188 L117 1243.92" class="st8"/>
		</g>
		<g id="shape144-157" v:mID="144" v:groupContext="shape" v:layerMember="0" transform="translate(1224,-1044)">
			<title>Dynamic connector.144</title>
			<path d="M9 1188 L9 1356.45" class="st8"/>
		</g>
		<g id="shape150-162" v:mID="150" v:groupContext="shape" transform="translate(1054,-832.514)">
			<title>Sheet.150</title>
			<desc>Q12</desc>
			<v:textBlock v:margins="rect(4,4,4,4)"/>
			<v:textRect cx="76" cy="1178" width="152.01" height="20"/>
			<rect x="0" y="1168" width="152" height="20" class="st6"/>
			<text x="65.88" y="1181.6" class="st7" v:langID="1033"><v:paragraph v:horizAlign="1"/><v:tabList/>Q12</text>		</g>
		<g id="shape155-165" v:mID="155" v:groupContext="shape" v:layerMember="0" transform="translate(1476.42,-929.36)">
			<title>Dynamic connector.155</title>
			<path d="M-8.58 1188 L-9.32 1241.35" class="st8"/>
		</g>
		<g id="shape157-170" v:mID="157" v:groupContext="shape" v:layerMember="0" transform="translate(1350.86,-920.641)">
			<title>Dynamic connector.157</title>
			<path d="M0 1179.54 L116.97 1179.54 L116.97 1178.46" class="st10"/>
		</g>
		<g id="shape158-173" v:mID="158" v:groupContext="shape" v:layerMember="0" transform="translate(1232.23,-928.776)">
			<title>Dynamic connector.158</title>
			<path d="M0 1188 L117.77 1188 L117.77 1242.08" class="st8"/>
		</g>
		<g id="shape159-178" v:mID="159" v:groupContext="shape" transform="translate(1090,-1080)">
			<title>Sheet.159</title>
			<desc>Q2</desc>
			<v:textBlock v:margins="rect(4,4,4,4)"/>
			<v:textRect cx="76" cy="1178" width="152.01" height="20"/>
			<rect x="0" y="1168" width="152" height="20" class="st6"/>
			<text x="68.92" y="1181.6" class="st7" v:langID="1033"><v:paragraph v:horizAlign="1"/><v:tabList/>Q2</text>		</g>
		<g id="shape164-181" v:mID="164" v:groupContext="shape" v:layerMember="0" transform="translate(1088.47,-1080)">
			<title>Dynamic connector.164</title>
			<path d="M0 1188 L0 1269 L141.53 1269 A3 3 0 0 1 147.53 1269 L201.1 1269" class="st8"/>
		</g>
		<g id="shape165-186" v:mID="165" v:groupContext="shape" v:layerMember="0" transform="translate(945,-787.736)">
			<title>Dynamic connector.165</title>
			<path d="M0 1179.24 L0 1211.64 L522 1211.64 L522 1185.8" class="st8"/>
		</g>
		<g id="shape166-191" v:mID="166" v:groupContext="shape" v:layerMember="0" transform="translate(1053,-796.5)">
			<title>Dynamic connector.166</title>
			<path d="M9 1188 L9 1219.5" class="st10"/>
		</g>
		<g id="shape167-194" v:mID="167" v:groupContext="shape" v:layerMember="0" transform="translate(1224,-764.1)">
			<title>Dynamic connector.167</title>
			<path d="M9 1188 L9 1140.06 L9 1140.06" class="st11"/>
		</g>
		<g id="shape168-200" v:mID="168" v:groupContext="shape" v:layerMember="0" transform="translate(1359.13,-765)">
			<title>Dynamic connector.168</title>
			<path d="M-8.87 1188 L-9.13 1188 L-9.13 1164.38" class="st8"/>
		</g>
		<g id="shape170-205" v:mID="170" v:groupContext="shape" transform="translate(1197,-777.429)">
			<title>Sheet.170</title>
			<desc>Q13</desc>
			<v:textBlock v:margins="rect(4,4,4,4)"/>
			<v:textRect cx="18.2321" cy="1178" width="36.47" height="20"/>
			<rect x="0" y="1168" width="36.4643" height="20" class="st6"/>
			<text x="8.11" y="1181.6" class="st7" v:langID="1033"><v:paragraph v:horizAlign="1"/><v:tabList/>Q13</text>		</g>
		<g id="shape172-208" v:mID="172" v:groupContext="shape" transform="translate(1377.21,-777.429)">
			<title>Sheet.172</title>
			<desc>Q15</desc>
			<v:textBlock v:margins="rect(4,4,4,4)"/>
			<v:textRect cx="76" cy="1178" width="152.01" height="20"/>
			<rect x="0" y="1168" width="152" height="20" class="st6"/>
			<text x="65.88" y="1181.6" class="st7" v:langID="1033"><v:paragraph v:horizAlign="1"/><v:tabList/>Q15</text>		</g>
		<g id="shape173-211" v:mID="173" v:groupContext="shape" transform="translate(1258.46,-777.429)">
			<title>Sheet.173</title>
			<desc>Q14</desc>
			<v:textBlock v:margins="rect(4,4,4,4)"/>
			<v:textRect cx="76" cy="1178" width="152.01" height="20"/>
			<rect x="0" y="1168" width="152" height="20" class="st6"/>
			<text x="65.88" y="1181.6" class="st7" v:langID="1033"><v:paragraph v:horizAlign="1"/><v:tabList/>Q14</text>		</g>
		<g id="shape175-214" v:mID="175" v:groupContext="shape" v:layerMember="0" transform="translate(1359.3,-963)">
			<title>Dynamic connector.175</title>
			<path d="M-8.7 1188 L-8.7 1222.22 L-9.3 1222.22" class="st10"/>
		</g>
		<g id="shape176-217" v:mID="176" v:groupContext="shape" transform="translate(1150.36,-979)">
			<title>Sheet.176</title>
			<desc>Q3,Q4,Q5,Q6,Q7,Q8,Q9</desc>
			<v:textBlock v:margins="rect(4,4,4,4)"/>
			<v:textRect cx="73.9464" cy="1178" width="147.9" height="20"/>
			<rect x="0" y="1168" width="147.893" height="20" class="st6"/>
			<text x="15.42" y="1181.6" class="st7" v:langID="1033"><v:paragraph v:horizAlign="1"/><v:tabList/>Q3,Q4,Q5,Q6,Q7,Q8,Q9</text>		</g>
		<g id="shape177-220" v:mID="177" v:groupContext="shape" transform="translate(1413,-796.971)">
			<title>Rounded rectangle</title>
			<desc>Show ratings for a video</desc>
			<v:userDefs>
				<v:ud v:nameU="visVersion" v:val="VT0(14):26"/>
			</v:userDefs>
			<v:textBlock v:margins="rect(4,4,4,4)"/>
			<v:textRect cx="54" cy="1152" width="108" height="72"/>
			<path d="M99 1188 A9.00007 9.00007 -180 0 0 108 1179 L108 1125 A9.00007 9.00007 -180 0 0 99 1116 L9 1116 A9.00007 9.00007
						 -180 0 0 0 1125 L0 1179 A9.00007 9.00007 -180 0 0 9 1188 L99 1188 Z" class="st12"/>
			<text x="4.99" y="1155" class="st13" v:langID="1033"><v:paragraph v:horizAlign="1"/><v:tabList/>Show ratings for a video</text>		</g>
		<g id="shape9-223" v:mID="9" v:groupContext="shape" transform="translate(891,-1044)">
			<title>Rounded rectangle.9</title>
			<desc>User logs into site</desc>
			<v:userDefs>
				<v:ud v:nameU="visVersion" v:val="VT0(14):26"/>
			</v:userDefs>
			<v:textBlock v:margins="rect(4,4,4,4)"/>
			<v:textRect cx="54" cy="1152" width="108" height="72"/>
			<path d="M99 1188 A9.00007 9.00007 -180 0 0 108 1179 L108 1125 A9.00007 9.00007 -180 0 0 99 1116 L9 1116 A9.00007 9.00007
						 -180 0 0 0 1125 L0 1179 A9.00007 9.00007 -180 0 0 9 1188 L99 1188 Z" class="st12"/>
			<text x="17.77" y="1155" class="st13" v:langID="1033"><v:paragraph v:horizAlign="1"/><v:tabList/>User logs into site</text>		</g>
		<g id="shape11-226" v:mID="11" v:groupContext="shape" transform="translate(1179,-1044)">
			<title>Rounded rectangle.11</title>
			<desc>Show latest videos added to the site</desc>
			<v:userDefs>
				<v:ud v:nameU="visVersion" v:val="VT0(14):26"/>
			</v:userDefs>
			<v:textBlock v:margins="rect(4,4,4,4)"/>
			<v:textRect cx="54" cy="1152" width="108" height="72"/>
			<path d="M99 1188 A9.00007 9.00007 -180 0 0 108 1179 L108 1125 A9.00007 9.00007 -180 0 0 99 1116 L9 1116 A9.00007 9.00007
						 -180 0 0 0 1125 L0 1179 A9.00007 9.00007 -180 0 0 9 1188 L99 1188 Z" class="st12"/>
			<text x="16.16" y="1149" class="st13" v:langID="1033"><v:paragraph v:horizAlign="1"/><v:tabList/>Show latest videos <tspan
						x="19.48" dy="1.2em" class="st14">added to the site</tspan></text>		</g>
		<g id="shape13-230" v:mID="13" v:groupContext="shape" transform="translate(1296.61,-963)">
			<title>Rounded rectangle.13</title>
			<desc>Search for videos by tag, release year, title, actor, directo...</desc>
			<v:userDefs>
				<v:ud v:nameU="visVersion" v:val="VT0(14):26"/>
			</v:userDefs>
			<v:textBlock v:margins="rect(4,4,4,4)"/>
			<v:textRect cx="54" cy="1152" width="108" height="72"/>
			<path d="M99 1188 A9.00007 9.00007 -180 0 0 108 1179 L108 1125 A9.00007 9.00007 -180 0 0 99 1116 L9 1116 A9.00007 9.00007
						 -180 0 0 0 1125 L0 1179 A9.00007 9.00007 -180 0 0 9 1188 L99 1188 Z" class="st12"/>
			<text x="4.23" y="1137" class="st13" v:langID="1033"><v:paragraph v:horizAlign="1"/><v:tabList/>Search for videos by tag, <tspan
						x="4.58" dy="1.2em" class="st14">release year</tspan>, title, actor, <tspan x="16.99" dy="1.2em"
						class="st14">director</tspan>, genre, or <tspan x="38.31" dy="1.2em" class="st14">country</tspan></text>		</g>
		<g id="shape14-236" v:mID="14" v:groupContext="shape" transform="translate(1179,-796.514)">
			<title>Rounded rectangle.14</title>
			<desc>Show comments for a video</desc>
			<v:userDefs>
				<v:ud v:nameU="visVersion" v:val="VT0(14):26"/>
			</v:userDefs>
			<v:textBlock v:margins="rect(4,4,4,4)"/>
			<v:textRect cx="54" cy="1152" width="108" height="72"/>
			<path d="M99 1188 A9.00007 9.00007 -180 0 0 108 1179 L108 1125 A9.00007 9.00007 -180 0 0 99 1116 L9 1116 A9.00007 9.00007
						 -180 0 0 0 1125 L0 1179 A9.00007 9.00007 -180 0 0 9 1188 L99 1188 Z" class="st12"/>
			<text x="9.69" y="1149" class="st13" v:langID="1033"><v:paragraph v:horizAlign="1"/><v:tabList/>Show comments for a <tspan
						x="42.84" dy="1.2em" class="st14">video</tspan></text>		</g>
		<g id="shape15-240" v:mID="15" v:groupContext="shape" transform="translate(1296,-795.657)">
			<title>Rounded rectangle.15</title>
			<desc>Show a video and its details</desc>
			<v:userDefs>
				<v:ud v:nameU="visVersion" v:val="VT0(14):26"/>
			</v:userDefs>
			<v:textBlock v:margins="rect(4,4,4,4)"/>
			<v:textRect cx="54" cy="1152" width="108" height="72"/>
			<path d="M99 1188 A9.00007 9.00007 -180 0 0 108 1179 L108 1125 A9.00007 9.00007 -180 0 0 99 1116 L9 1116 A9.00007 9.00007
						 -180 0 0 0 1125 L0 1179 A9.00007 9.00007 -180 0 0 9 1188 L99 1188 Z" class="st12"/>
			<text x="12.36" y="1149" class="st13" v:langID="1033"><v:paragraph v:horizAlign="1"/><v:tabList/>Show a video and its <tspan
						x="40.56" dy="1.2em" class="st14">details</tspan></text>		</g>
		<g id="shape16-244" v:mID="16" v:groupContext="shape" transform="translate(774,-796.5)">
			<title>Rounded rectangle.16</title>
			<desc>Show basic information about user</desc>
			<v:userDefs>
				<v:ud v:nameU="visVersion" v:val="VT0(14):26"/>
			</v:userDefs>
			<v:textBlock v:margins="rect(4,4,4,4)"/>
			<v:textRect cx="54" cy="1152" width="108" height="72"/>
			<path d="M99 1188 A9.00007 9.00007 -180 0 0 108 1179 L108 1125 A9.00007 9.00007 -180 0 0 99 1116 L9 1116 A9.00007 9.00007
						 -180 0 0 0 1125 L0 1179 A9.00007 9.00007 -180 0 0 9 1188 L99 1188 Z" class="st12"/>
			<text x="6.21" y="1149" class="st13" v:langID="1033"><v:paragraph v:horizAlign="1"/><v:tabList/>Show basic information <tspan
						x="32.1" dy="1.2em" class="st14">about user</tspan></text>		</g>
		<g id="shape17-248" v:mID="17" v:groupContext="shape" transform="translate(891,-796.5)">
			<title>Rounded rectangle.17</title>
			<desc>Show videos added by a user</desc>
			<v:userDefs>
				<v:ud v:nameU="visVersion" v:val="VT0(14):26"/>
			</v:userDefs>
			<v:textBlock v:margins="rect(4,4,4,4)"/>
			<v:textRect cx="54" cy="1152" width="108" height="72"/>
			<path d="M99 1188 A9.00007 9.00007 -180 0 0 108 1179 L108 1125 A9.00007 9.00007 -180 0 0 99 1116 L9 1116 A9.00007 9.00007
						 -180 0 0 0 1125 L0 1179 A9.00007 9.00007 -180 0 0 9 1188 L99 1188 Z" class="st12"/>
			<text x="5.18" y="1149" class="st13" v:langID="1033"><v:paragraph v:horizAlign="1"/><v:tabList/>Show videos added by a <tspan
						x="45.19" dy="1.2em" class="st14">user</tspan></text>		</g>
		<g id="shape18-252" v:mID="18" v:groupContext="shape" transform="translate(1008,-796.5)">
			<title>Rounded rectangle.18</title>
			<desc>Show comments posted by a user</desc>
			<v:userDefs>
				<v:ud v:nameU="visVersion" v:val="VT0(14):26"/>
			</v:userDefs>
			<v:textBlock v:margins="rect(4,4,4,4)"/>
			<v:textRect cx="54" cy="1152" width="108" height="72"/>
			<path d="M99 1188 A9.00007 9.00007 -180 0 0 108 1179 L108 1125 A9.00007 9.00007 -180 0 0 99 1116 L9 1116 A9.00007 9.00007
						 -180 0 0 0 1125 L0 1179 A9.00007 9.00007 -180 0 0 9 1188 L99 1188 Z" class="st12"/>
			<text x="5.11" y="1149" class="st13" v:langID="1033"><v:paragraph v:horizAlign="1"/><v:tabList/>Show comments posted <tspan
						x="35.64" dy="1.2em" class="st14">by a user</tspan></text>		</g>
		<g id="shape8-256" v:mID="8" v:groupContext="shape" v:layerMember="0" transform="translate(1179,-841.507)">
			<title>Dynamic connector.8</title>
			<path d="M0 1196.99 L-13.5 1196.99 L-13.5 1197.01 L-55.96 1197.01" class="st8"/>
		</g>
		<g id="shape1-261" v:mID="1" v:groupContext="shape" v:layerMember="0" transform="translate(1341.47,-1089)">
			<title>Dynamic connector.1</title>
			<path d="M8.86 1188 L9.14 1188 L9.14 1234.96" class="st8"/>
		</g>
	</g>
</svg>
